<mxfile host="app.diagrams.net" agent="Mozilla/5.0 (Windows NT 10.0; Win64; x64) AppleWebKit/537.36 (KHTML, like Gecko) Chrome/127.0.0.0 Safari/537.36 OPR/113.0.0.0" version="24.8.4">
  <diagram name="Strona-1" id="YwWQ-UXERLKJIcqRb9PK">
    <mxGraphModel dx="2443" dy="781" grid="1" gridSize="10" guides="1" tooltips="1" connect="1" arrows="1" fold="1" page="1" pageScale="1" pageWidth="827" pageHeight="1169" math="0" shadow="0">
      <root>
        <mxCell id="0" />
        <mxCell id="1" parent="0" />
        <mxCell id="VDHOx4SLG22JS74lbpEi-4" value="w1990315_&lt;span style=&quot;text-align: left;&quot;&gt;Branch&lt;/span&gt;" style="swimlane;fontStyle=0;childLayout=stackLayout;horizontal=1;startSize=30;horizontalStack=0;resizeParent=1;resizeParentMax=0;resizeLast=0;collapsible=1;marginBottom=0;whiteSpace=wrap;html=1;" parent="1" vertex="1">
          <mxGeometry x="130" y="490" width="160" height="110" as="geometry" />
        </mxCell>
        <mxCell id="VDHOx4SLG22JS74lbpEi-5" value="&lt;div&gt;&lt;span style=&quot;text-align: center; background-color: initial;&quot;&gt;w1990315_&lt;/span&gt;branchId{PK}&lt;br&gt;&lt;span style=&quot;text-align: center;&quot;&gt;w1990315_&lt;/span&gt;branchName&lt;br&gt;&lt;span style=&quot;text-align: center;&quot;&gt;w1990315_&lt;/span&gt;branchAddress&lt;br&gt;&lt;span style=&quot;text-align: center;&quot;&gt;w1990315_&lt;/span&gt;branchTelNo&lt;br&gt;&lt;span style=&quot;text-align: center;&quot;&gt;w1990315_&lt;/span&gt;distanceToTrain&lt;br&gt;&lt;/div&gt;" style="text;strokeColor=none;fillColor=none;align=left;verticalAlign=middle;spacingLeft=4;spacingRight=4;overflow=hidden;points=[[0,0.5],[1,0.5]];portConstraint=eastwest;rotatable=0;whiteSpace=wrap;html=1;" parent="VDHOx4SLG22JS74lbpEi-4" vertex="1">
          <mxGeometry y="30" width="160" height="80" as="geometry" />
        </mxCell>
        <mxCell id="VDHOx4SLG22JS74lbpEi-10" value="w1990315_Test" style="swimlane;fontStyle=0;childLayout=stackLayout;horizontal=1;startSize=30;horizontalStack=0;resizeParent=1;resizeParentMax=0;resizeLast=0;collapsible=1;marginBottom=0;whiteSpace=wrap;html=1;" parent="1" vertex="1">
          <mxGeometry x="221.5" y="310" width="150" height="100" as="geometry" />
        </mxCell>
        <mxCell id="VDHOx4SLG22JS74lbpEi-11" value="&lt;span style=&quot;text-align: center;&quot;&gt;w1990315_&lt;/span&gt;testId{PK}&lt;br&gt;&lt;span style=&quot;text-align: center;&quot;&gt;w1990315_&lt;/span&gt;testDateTime&lt;br&gt;&lt;span style=&quot;text-align: center;&quot;&gt;w1990315_&lt;/span&gt;testComments" style="text;strokeColor=none;fillColor=none;align=left;verticalAlign=middle;spacingLeft=4;spacingRight=4;overflow=hidden;points=[[0,0.5],[1,0.5]];portConstraint=eastwest;rotatable=0;whiteSpace=wrap;html=1;" parent="VDHOx4SLG22JS74lbpEi-10" vertex="1">
          <mxGeometry y="30" width="150" height="70" as="geometry" />
        </mxCell>
        <mxCell id="VDHOx4SLG22JS74lbpEi-14" value="w1990315_Booking" style="swimlane;fontStyle=0;childLayout=stackLayout;horizontal=1;startSize=30;horizontalStack=0;resizeParent=1;resizeParentMax=0;resizeLast=0;collapsible=1;marginBottom=0;whiteSpace=wrap;html=1;" parent="1" vertex="1">
          <mxGeometry x="330" y="460" width="180" height="100" as="geometry" />
        </mxCell>
        <mxCell id="VDHOx4SLG22JS74lbpEi-15" value="&lt;span style=&quot;text-align: center;&quot;&gt;w1990315_&lt;/span&gt;bookingRefNo{PK}&lt;br&gt;&lt;span style=&quot;text-align: center;&quot;&gt;w1990315_&lt;/span&gt;bookingDateTime&lt;br&gt;&lt;span style=&quot;text-align: center;&quot;&gt;w1990315_&lt;/span&gt;bookingStatus" style="text;strokeColor=none;fillColor=none;align=left;verticalAlign=middle;spacingLeft=4;spacingRight=4;overflow=hidden;points=[[0,0.5],[1,0.5]];portConstraint=eastwest;rotatable=0;whiteSpace=wrap;html=1;" parent="VDHOx4SLG22JS74lbpEi-14" vertex="1">
          <mxGeometry y="30" width="180" height="70" as="geometry" />
        </mxCell>
        <mxCell id="VDHOx4SLG22JS74lbpEi-16" value="w1990315_Hearing_Test" style="swimlane;fontStyle=0;childLayout=stackLayout;horizontal=1;startSize=30;horizontalStack=0;resizeParent=1;resizeParentMax=0;resizeLast=0;collapsible=1;marginBottom=0;whiteSpace=wrap;html=1;" parent="1" vertex="1">
          <mxGeometry x="30" y="330" width="150" height="50" as="geometry" />
        </mxCell>
        <mxCell id="VDHOx4SLG22JS74lbpEi-17" value="&lt;span style=&quot;text-align: center;&quot;&gt;w1990315_&lt;/span&gt;hearingLevel&amp;nbsp;" style="text;strokeColor=none;fillColor=none;align=left;verticalAlign=middle;spacingLeft=4;spacingRight=4;overflow=hidden;points=[[0,0.5],[1,0.5]];portConstraint=eastwest;rotatable=0;whiteSpace=wrap;html=1;" parent="VDHOx4SLG22JS74lbpEi-16" vertex="1">
          <mxGeometry y="30" width="150" height="20" as="geometry" />
        </mxCell>
        <mxCell id="VDHOx4SLG22JS74lbpEi-18" value="w1990315_Customer" style="swimlane;fontStyle=0;childLayout=stackLayout;horizontal=1;startSize=30;horizontalStack=0;resizeParent=1;resizeParentMax=0;resizeLast=0;collapsible=1;marginBottom=0;whiteSpace=wrap;html=1;" parent="1" vertex="1">
          <mxGeometry x="350" y="625" width="170" height="140" as="geometry" />
        </mxCell>
        <mxCell id="VDHOx4SLG22JS74lbpEi-19" value="&lt;span style=&quot;text-align: center;&quot;&gt;w1990315_&lt;/span&gt;custId{PK}&lt;div&gt;&lt;span style=&quot;text-align: center;&quot;&gt;w1990315_&lt;/span&gt;bookingRefNo{FK}&lt;br&gt;&lt;span style=&quot;text-align: center;&quot;&gt;w1990315_&lt;/span&gt;custFullName&lt;br&gt;&lt;span style=&quot;text-align: center;&quot;&gt;w1990315_&lt;/span&gt;custEmail&lt;br&gt;&lt;span style=&quot;text-align: center;&quot;&gt;w1990315_&lt;/span&gt;custTelNo&lt;br&gt;&lt;span style=&quot;text-align: center;&quot;&gt;w1990315_&lt;/span&gt;custAddress&lt;br&gt;&lt;span style=&quot;text-align: center;&quot;&gt;w1990315_&lt;/span&gt;custPostCode&lt;/div&gt;" style="text;strokeColor=none;fillColor=none;align=left;verticalAlign=middle;spacingLeft=4;spacingRight=4;overflow=hidden;points=[[0,0.5],[1,0.5]];portConstraint=eastwest;rotatable=0;whiteSpace=wrap;html=1;" parent="VDHOx4SLG22JS74lbpEi-18" vertex="1">
          <mxGeometry y="30" width="170" height="110" as="geometry" />
        </mxCell>
        <mxCell id="VDHOx4SLG22JS74lbpEi-20" value="w1990315_Prescription" style="swimlane;fontStyle=0;childLayout=stackLayout;horizontal=1;startSize=30;horizontalStack=0;resizeParent=1;resizeParentMax=0;resizeLast=0;collapsible=1;marginBottom=0;whiteSpace=wrap;html=1;" parent="1" vertex="1">
          <mxGeometry x="490" y="330" width="180" height="110" as="geometry" />
        </mxCell>
        <mxCell id="VDHOx4SLG22JS74lbpEi-21" value="&lt;span style=&quot;text-align: center;&quot;&gt;w1990315_&lt;/span&gt;prescripRefNo{PK}&lt;br&gt;&lt;span style=&quot;text-align: center;&quot;&gt;w1990315_&lt;/span&gt;startDate&lt;br&gt;&lt;span style=&quot;text-align: center;&quot;&gt;w1990315_&lt;/span&gt;validToDate&lt;br&gt;&lt;span style=&quot;text-align: center;&quot;&gt;w1990315_&lt;/span&gt;testResults&lt;br&gt;&lt;span style=&quot;text-align: center;&quot;&gt;w1990315_&lt;/span&gt;recommendation" style="text;strokeColor=none;fillColor=none;align=left;verticalAlign=middle;spacingLeft=4;spacingRight=4;overflow=hidden;points=[[0,0.5],[1,0.5]];portConstraint=eastwest;rotatable=0;whiteSpace=wrap;html=1;" parent="VDHOx4SLG22JS74lbpEi-20" vertex="1">
          <mxGeometry y="30" width="180" height="80" as="geometry" />
        </mxCell>
        <mxCell id="VDHOx4SLG22JS74lbpEi-22" value="w1990315_Order" style="swimlane;fontStyle=0;childLayout=stackLayout;horizontal=1;startSize=30;horizontalStack=0;resizeParent=1;resizeParentMax=0;resizeLast=0;collapsible=1;marginBottom=0;whiteSpace=wrap;html=1;" parent="1" vertex="1">
          <mxGeometry x="335" y="920" width="180" height="110" as="geometry" />
        </mxCell>
        <mxCell id="VDHOx4SLG22JS74lbpEi-23" value="&lt;span style=&quot;text-align: center;&quot;&gt;w1990315_&lt;/span&gt;orderRefNo{PK}&lt;br&gt;&lt;span style=&quot;text-align: center;&quot;&gt;w1990315_&lt;/span&gt;orderDateTime&lt;br&gt;&lt;span style=&quot;text-align: center;&quot;&gt;w1990315_&lt;/span&gt;orderStatus&lt;br&gt;&lt;span style=&quot;text-align: center;&quot;&gt;w1990315_&lt;/span&gt;expectedDateTime&lt;br&gt;&lt;span style=&quot;text-align: center;&quot;&gt;w1990315_&lt;/span&gt;collecDateTime&amp;nbsp;" style="text;strokeColor=none;fillColor=none;align=left;verticalAlign=middle;spacingLeft=4;spacingRight=4;overflow=hidden;points=[[0,0.5],[1,0.5]];portConstraint=eastwest;rotatable=0;whiteSpace=wrap;html=1;" parent="VDHOx4SLG22JS74lbpEi-22" vertex="1">
          <mxGeometry y="30" width="180" height="80" as="geometry" />
        </mxCell>
        <mxCell id="VDHOx4SLG22JS74lbpEi-26" value="w1990315_Visual_Test" style="swimlane;fontStyle=0;childLayout=stackLayout;horizontal=1;startSize=30;horizontalStack=0;resizeParent=1;resizeParentMax=0;resizeLast=0;collapsible=1;marginBottom=0;whiteSpace=wrap;html=1;" parent="1" vertex="1">
          <mxGeometry y="400" width="140" height="80" as="geometry" />
        </mxCell>
        <mxCell id="VDHOx4SLG22JS74lbpEi-27" value="&lt;span style=&quot;text-align: center;&quot;&gt;w1990315_&lt;/span&gt;visualAcuity&lt;br&gt;&lt;span style=&quot;text-align: center;&quot;&gt;w1990315_&lt;/span&gt;retinoscopy&lt;br&gt;&lt;span style=&quot;text-align: center;&quot;&gt;w1990315_&lt;/span&gt;refraction" style="text;strokeColor=none;fillColor=none;align=left;verticalAlign=middle;spacingLeft=4;spacingRight=4;overflow=hidden;points=[[0,0.5],[1,0.5]];portConstraint=eastwest;rotatable=0;whiteSpace=wrap;html=1;" parent="VDHOx4SLG22JS74lbpEi-26" vertex="1">
          <mxGeometry y="30" width="140" height="50" as="geometry" />
        </mxCell>
        <mxCell id="VDHOx4SLG22JS74lbpEi-30" value="w1990315_Visual_Device" style="swimlane;fontStyle=0;childLayout=stackLayout;horizontal=1;startSize=30;horizontalStack=0;resizeParent=1;resizeParentMax=0;resizeLast=0;collapsible=1;marginBottom=0;whiteSpace=wrap;html=1;" parent="1" vertex="1">
          <mxGeometry x="613" y="577" width="180" height="190" as="geometry" />
        </mxCell>
        <mxCell id="VDHOx4SLG22JS74lbpEi-31" value="&lt;div&gt;&lt;span style=&quot;text-align: center;&quot;&gt;w1990315_&lt;/span&gt;deviceCatalogId{PK}&lt;br&gt;&lt;span style=&quot;text-align: center;&quot;&gt;w1990315_&lt;/span&gt;deviceCatalogName&lt;br&gt;&lt;span style=&quot;text-align: center;&quot;&gt;w1990315_&lt;/span&gt;deviceDescrip&lt;br&gt;&lt;span style=&quot;text-align: center;&quot;&gt;w1990315_&lt;/span&gt;availabilityStatus&lt;br&gt;&lt;/div&gt;&lt;div&gt;&lt;span style=&quot;text-align: center;&quot;&gt;w1990315_&lt;/span&gt;frBrand&lt;br&gt;&lt;div&gt;&lt;span style=&quot;text-align: center; background-color: initial;&quot;&gt;w1990315_&lt;/span&gt;frModel&amp;nbsp;&lt;/div&gt;&lt;/div&gt;&lt;div&gt;&lt;span style=&quot;text-align: center;&quot;&gt;w1990315_&lt;/span&gt;lensSerialNb {AK}&lt;br&gt;&lt;span style=&quot;text-align: center;&quot;&gt;w1990315_&lt;/span&gt;lensVisionType&lt;br&gt;&lt;span style=&quot;text-align: center;&quot;&gt;w1990315_&lt;/span&gt;lensTint&lt;br&gt;&lt;span style=&quot;text-align: center;&quot;&gt;w1990315_&lt;/span&gt;lensThinnessLevel&amp;nbsp;&lt;br&gt;&lt;/div&gt;" style="text;strokeColor=none;fillColor=none;align=left;verticalAlign=middle;spacingLeft=4;spacingRight=4;overflow=hidden;points=[[0,0.5],[1,0.5]];portConstraint=eastwest;rotatable=0;whiteSpace=wrap;html=1;" parent="VDHOx4SLG22JS74lbpEi-30" vertex="1">
          <mxGeometry y="30" width="180" height="160" as="geometry" />
        </mxCell>
        <mxCell id="VDHOx4SLG22JS74lbpEi-32" value="w1990315_Hearing_Device" style="swimlane;fontStyle=0;childLayout=stackLayout;horizontal=1;startSize=30;horizontalStack=0;resizeParent=1;resizeParentMax=0;resizeLast=0;collapsible=1;marginBottom=0;whiteSpace=wrap;html=1;" parent="1" vertex="1">
          <mxGeometry x="570" y="820" width="190" height="130" as="geometry" />
        </mxCell>
        <mxCell id="VDHOx4SLG22JS74lbpEi-33" value="&lt;span style=&quot;text-align: center;&quot;&gt;w1990315_&lt;/span&gt;deviceCatalogId{PK}&lt;br&gt;&lt;span style=&quot;text-align: center;&quot;&gt;w1990315_&lt;/span&gt;dhdMake&lt;br&gt;&lt;span style=&quot;text-align: center;&quot;&gt;w1990315_&lt;/span&gt;hdModel&lt;div&gt;&lt;span style=&quot;text-align: center;&quot;&gt;w1990315_&lt;/span&gt;deviceCatalogName&lt;br&gt;&lt;span style=&quot;text-align: center;&quot;&gt;w1990315_&lt;/span&gt;deviceDescrip&lt;br&gt;&lt;span style=&quot;text-align: center;&quot;&gt;w1990315_&lt;/span&gt;availabilityStatus&lt;br&gt;&lt;/div&gt;" style="text;strokeColor=none;fillColor=none;align=left;verticalAlign=middle;spacingLeft=4;spacingRight=4;overflow=hidden;points=[[0,0.5],[1,0.5]];portConstraint=eastwest;rotatable=0;whiteSpace=wrap;html=1;" parent="VDHOx4SLG22JS74lbpEi-32" vertex="1">
          <mxGeometry y="30" width="190" height="100" as="geometry" />
        </mxCell>
        <mxCell id="VDHOx4SLG22JS74lbpEi-39" value="w1990315_Sales_Assistant" style="swimlane;fontStyle=0;childLayout=stackLayout;horizontal=1;startSize=30;horizontalStack=0;resizeParent=1;resizeParentMax=0;resizeLast=0;collapsible=1;marginBottom=0;whiteSpace=wrap;html=1;" parent="1" vertex="1">
          <mxGeometry x="114" y="870" width="160" height="120" as="geometry" />
        </mxCell>
        <mxCell id="VDHOx4SLG22JS74lbpEi-40" value="&lt;div&gt;&lt;span style=&quot;text-align: center; background-color: initial;&quot;&gt;w1990315_&lt;/span&gt;commision&lt;/div&gt;&lt;div&gt;&lt;span style=&quot;text-align: center; background-color: initial;&quot;&gt;w1990315_&lt;/span&gt;staffId{PK}&lt;br&gt;&lt;/div&gt;&lt;div&gt;w1990315_branchId {FK}&lt;/div&gt;&lt;div&gt;&lt;span style=&quot;text-align: center;&quot;&gt;w1990315_&lt;/span&gt;staffFullName&lt;br&gt;&lt;span style=&quot;text-align: center;&quot;&gt;w1990315_&lt;/span&gt;staffEmail&lt;br&gt;&lt;span style=&quot;text-align: center;&quot;&gt;w1990315_&lt;/span&gt;staffExtNumber&lt;br&gt;&lt;/div&gt;" style="text;strokeColor=none;fillColor=none;align=left;verticalAlign=middle;spacingLeft=4;spacingRight=4;overflow=hidden;points=[[0,0.5],[1,0.5]];portConstraint=eastwest;rotatable=0;whiteSpace=wrap;html=1;" parent="VDHOx4SLG22JS74lbpEi-39" vertex="1">
          <mxGeometry y="30" width="160" height="90" as="geometry" />
        </mxCell>
        <mxCell id="VDHOx4SLG22JS74lbpEi-41" value="w1990315_Optitian&lt;span style=&quot;color: rgba(0, 0, 0, 0); font-family: monospace; font-size: 0px; text-align: start; text-wrap: nowrap;&quot;&gt;%3CmxGraphModel%3E%3Croot%3E%3CmxCell%20id%3D%220%22%2F%3E%3CmxCell%20id%3D%221%22%20parent%3D%220%22%2F%3E%3CmxCell%20id%3D%222%22%20value%3D%22Visual_Device%22%20style%3D%22swimlane%3BfontStyle%3D0%3BchildLayout%3DstackLayout%3Bhorizontal%3D1%3BstartSize%3D30%3BhorizontalStack%3D0%3BresizeParent%3D1%3BresizeParentMax%3D0%3BresizeLast%3D0%3Bcollapsible%3D1%3BmarginBottom%3D0%3BwhiteSpace%3Dwrap%3Bhtml%3D1%3B%22%20vertex%3D%221%22%20parent%3D%221%22%3E%3CmxGeometry%20x%3D%22510%22%20y%3D%22275%22%20width%3D%22120%22%20height%3D%2250%22%20as%3D%22geometry%22%2F%3E%3C%2FmxCell%3E%3CmxCell%20id%3D%223%22%20value%3D%22deviceCatalogId%7BFK%7D%26lt%3Bdiv%26gt%3B%26lt%3Bbr%2F%26gt%3B%26lt%3B%2Fdiv%26gt%3B%22%20style%3D%22text%3BstrokeColor%3Dnone%3BfillColor%3Dnone%3Balign%3Dleft%3BverticalAlign%3Dmiddle%3BspacingLeft%3D4%3BspacingRight%3D4%3Boverflow%3Dhidden%3Bpoints%3D%5B%5B0%2C0.5%5D%2C%5B1%2C0.5%5D%5D%3BportConstraint%3Deastwest%3Brotatable%3D0%3BwhiteSpace%3Dwrap%3Bhtml%3D1%3B%22%20vertex%3D%221%22%20parent%3D%222%22%3E%3CmxGeometry%20y%3D%2230%22%20width%3D%22120%22%20height%3D%2220%22%20as%3D%22geometry%22%2F%3E%3C%2FmxCell%3E%3C%2Froot%3E%3C%2FmxGraphModel%3E&lt;/span&gt;" style="swimlane;fontStyle=0;childLayout=stackLayout;horizontal=1;startSize=30;horizontalStack=0;resizeParent=1;resizeParentMax=0;resizeLast=0;collapsible=1;marginBottom=0;whiteSpace=wrap;html=1;" parent="1" vertex="1">
          <mxGeometry y="631" width="160" height="100" as="geometry" />
        </mxCell>
        <mxCell id="VDHOx4SLG22JS74lbpEi-42" value="&lt;span style=&quot;text-align: center;&quot;&gt;w1990315_&lt;/span&gt;staffId{PK}&lt;div&gt;&lt;span style=&quot;text-align: center;&quot;&gt;w1990315_&lt;/span&gt;staffFullName&lt;br&gt;&lt;span style=&quot;text-align: center;&quot;&gt;w1990315_&lt;/span&gt;staffEmail&lt;br&gt;&lt;span style=&quot;text-align: center;&quot;&gt;w1990315_&lt;/span&gt;staffExtNumber&lt;br&gt;&lt;/div&gt;" style="text;strokeColor=none;fillColor=none;align=left;verticalAlign=middle;spacingLeft=4;spacingRight=4;overflow=hidden;points=[[0,0.5],[1,0.5]];portConstraint=eastwest;rotatable=0;whiteSpace=wrap;html=1;" parent="VDHOx4SLG22JS74lbpEi-41" vertex="1">
          <mxGeometry y="30" width="160" height="70" as="geometry" />
        </mxCell>
        <mxCell id="VDHOx4SLG22JS74lbpEi-43" value="w1990315_Audiologist" style="swimlane;fontStyle=0;childLayout=stackLayout;horizontal=1;startSize=30;horizontalStack=0;resizeParent=1;resizeParentMax=0;resizeLast=0;collapsible=1;marginBottom=0;whiteSpace=wrap;html=1;" parent="1" vertex="1">
          <mxGeometry x="8.5" y="750" width="160" height="100" as="geometry" />
        </mxCell>
        <mxCell id="VDHOx4SLG22JS74lbpEi-44" value="&lt;div&gt;&lt;span style=&quot;text-align: center; background-color: initial;&quot;&gt;w1990315_&lt;/span&gt;staffId{PK}&lt;br&gt;&lt;/div&gt;&lt;div&gt;&lt;span style=&quot;text-align: center;&quot;&gt;w1990315_&lt;/span&gt;staffFullName&lt;br&gt;&lt;span style=&quot;text-align: center;&quot;&gt;w1990315_&lt;/span&gt;staffEmail&lt;br&gt;&lt;span style=&quot;text-align: center;&quot;&gt;w1990315_&lt;/span&gt;staffExtNumber&lt;br&gt;&lt;/div&gt;" style="text;strokeColor=none;fillColor=none;align=left;verticalAlign=middle;spacingLeft=4;spacingRight=4;overflow=hidden;points=[[0,0.5],[1,0.5]];portConstraint=eastwest;rotatable=0;whiteSpace=wrap;html=1;" parent="VDHOx4SLG22JS74lbpEi-43" vertex="1">
          <mxGeometry y="30" width="160" height="70" as="geometry" />
        </mxCell>
        <mxCell id="0N0CLIWLFnsyUBgWIPJR-1" value="takes place at" style="endArrow=none;html=1;endSize=12;startArrow=none;startSize=14;startFill=0;edgeStyle=orthogonalEdgeStyle;align=center;verticalAlign=bottom;endFill=0;rounded=0;fontSize=12;exitX=0.537;exitY=0.011;exitDx=0;exitDy=0;exitPerimeter=0;entryX=0.457;entryY=1;entryDx=0;entryDy=0;entryPerimeter=0;" parent="1" source="VDHOx4SLG22JS74lbpEi-4" target="VDHOx4SLG22JS74lbpEi-11" edge="1">
          <mxGeometry x="0.4851" relative="1" as="geometry">
            <mxPoint x="69.49999999999977" y="511" as="sourcePoint" />
            <mxPoint x="290" y="420" as="targetPoint" />
            <mxPoint as="offset" />
            <Array as="points">
              <mxPoint x="216" y="470" />
              <mxPoint x="290" y="470" />
            </Array>
          </mxGeometry>
        </mxCell>
        <mxCell id="0N0CLIWLFnsyUBgWIPJR-2" value="is for" style="endArrow=none;html=1;endSize=12;startArrow=none;startSize=14;startFill=0;edgeStyle=orthogonalEdgeStyle;align=center;verticalAlign=bottom;endFill=0;rounded=0;fontSize=12;exitX=0.926;exitY=1.003;exitDx=0;exitDy=0;exitPerimeter=0;entryX=0.694;entryY=0.009;entryDx=0;entryDy=0;entryPerimeter=0;" parent="1" source="VDHOx4SLG22JS74lbpEi-11" target="VDHOx4SLG22JS74lbpEi-14" edge="1">
          <mxGeometry x="0.2321" relative="1" as="geometry">
            <mxPoint x="289.9999999999998" y="361" as="sourcePoint" />
            <mxPoint x="519.9999999999998" y="360" as="targetPoint" />
            <mxPoint as="offset" />
            <Array as="points">
              <mxPoint x="360" y="440" />
              <mxPoint x="455" y="440" />
            </Array>
          </mxGeometry>
        </mxCell>
        <mxCell id="0N0CLIWLFnsyUBgWIPJR-3" value="makes" style="endArrow=none;html=1;endSize=12;startArrow=none;startSize=14;startFill=0;edgeStyle=orthogonalEdgeStyle;align=center;verticalAlign=bottom;endFill=0;rounded=0;fontSize=12;exitX=0.917;exitY=0;exitDx=0;exitDy=0;exitPerimeter=0;" parent="1" edge="1">
          <mxGeometry x="-0.5447" y="1" relative="1" as="geometry">
            <mxPoint x="410.87" y="625" as="sourcePoint" />
            <mxPoint x="410" y="560" as="targetPoint" />
            <mxPoint as="offset" />
            <Array as="points">
              <mxPoint x="411" y="592" />
              <mxPoint x="410" y="592" />
            </Array>
          </mxGeometry>
        </mxCell>
        <mxCell id="0N0CLIWLFnsyUBgWIPJR-8" value="processes" style="endArrow=none;html=1;endSize=12;startArrow=none;startSize=14;startFill=0;edgeStyle=orthogonalEdgeStyle;align=center;verticalAlign=bottom;endFill=0;rounded=0;fontSize=12;entryX=0.5;entryY=0;entryDx=0;entryDy=0;exitX=1.003;exitY=-0.033;exitDx=0;exitDy=0;exitPerimeter=0;" parent="1" source="VDHOx4SLG22JS74lbpEi-40" edge="1">
          <mxGeometry x="-0.3765" relative="1" as="geometry">
            <mxPoint x="290" y="900" as="sourcePoint" />
            <mxPoint x="407" y="920.0000000000002" as="targetPoint" />
            <mxPoint as="offset" />
            <Array as="points">
              <mxPoint x="275" y="900" />
              <mxPoint x="390" y="900" />
              <mxPoint x="390" y="920" />
            </Array>
          </mxGeometry>
        </mxCell>
        <mxCell id="0N0CLIWLFnsyUBgWIPJR-9" value="places" style="endArrow=none;html=1;endSize=12;startArrow=none;startSize=14;startFill=0;edgeStyle=orthogonalEdgeStyle;align=center;verticalAlign=bottom;endFill=0;rounded=0;fontSize=12;exitX=0.75;exitY=0;exitDx=0;exitDy=0;entryX=0.705;entryY=1.002;entryDx=0;entryDy=0;entryPerimeter=0;" parent="1" source="VDHOx4SLG22JS74lbpEi-22" target="VDHOx4SLG22JS74lbpEi-19" edge="1">
          <mxGeometry x="0.2822" relative="1" as="geometry">
            <mxPoint x="430" y="830" as="sourcePoint" />
            <mxPoint x="470" y="750" as="targetPoint" />
            <mxPoint as="offset" />
            <Array as="points" />
          </mxGeometry>
        </mxCell>
        <mxCell id="0N0CLIWLFnsyUBgWIPJR-10" value="is for" style="endArrow=none;html=1;endSize=12;startArrow=none;startSize=14;startFill=0;edgeStyle=orthogonalEdgeStyle;align=center;verticalAlign=bottom;endFill=0;rounded=0;fontSize=12;exitX=1.018;exitY=0.719;exitDx=0;exitDy=0;exitPerimeter=0;entryX=0.614;entryY=1.009;entryDx=0;entryDy=0;entryPerimeter=0;" parent="1" source="VDHOx4SLG22JS74lbpEi-23" target="VDHOx4SLG22JS74lbpEi-33" edge="1">
          <mxGeometry x="-0.179" y="8" relative="1" as="geometry">
            <mxPoint x="459.9999999999998" y="900.37" as="sourcePoint" />
            <mxPoint x="680" y="960" as="targetPoint" />
            <mxPoint as="offset" />
          </mxGeometry>
        </mxCell>
        <mxCell id="0N0CLIWLFnsyUBgWIPJR-15" value="produces" style="endArrow=none;html=1;endSize=12;startArrow=none;startSize=14;startFill=0;edgeStyle=orthogonalEdgeStyle;align=center;verticalAlign=bottom;endFill=0;rounded=0;fontSize=12;entryX=0;entryY=0.078;entryDx=0;entryDy=0;entryPerimeter=0;" parent="1" target="VDHOx4SLG22JS74lbpEi-21" edge="1">
          <mxGeometry x="-0.0022" y="3" relative="1" as="geometry">
            <mxPoint x="371" y="370" as="sourcePoint" />
            <mxPoint x="519.9999999999998" y="360" as="targetPoint" />
            <mxPoint as="offset" />
            <Array as="points">
              <mxPoint x="371" y="370" />
              <mxPoint x="490" y="370" />
            </Array>
          </mxGeometry>
        </mxCell>
        <mxCell id="0N0CLIWLFnsyUBgWIPJR-17" value="is for" style="endArrow=none;html=1;endSize=12;startArrow=none;startSize=14;startFill=0;edgeStyle=orthogonalEdgeStyle;align=center;verticalAlign=bottom;endFill=0;rounded=0;fontSize=12;exitX=0.551;exitY=1;exitDx=0;exitDy=0;exitPerimeter=0;entryX=0.299;entryY=0.009;entryDx=0;entryDy=0;entryPerimeter=0;" parent="1" source="VDHOx4SLG22JS74lbpEi-21" target="VDHOx4SLG22JS74lbpEi-30" edge="1">
          <mxGeometry x="-0.5898" relative="1" as="geometry">
            <mxPoint x="560" y="460" as="sourcePoint" />
            <mxPoint x="600" y="580" as="targetPoint" />
            <mxPoint as="offset" />
            <Array as="points">
              <mxPoint x="589" y="490" />
              <mxPoint x="670" y="490" />
              <mxPoint x="670" y="579" />
            </Array>
          </mxGeometry>
        </mxCell>
        <mxCell id="0N0CLIWLFnsyUBgWIPJR-21" value="can be" style="endArrow=none;html=1;endSize=12;startArrow=none;startSize=14;startFill=0;edgeStyle=orthogonalEdgeStyle;align=center;verticalAlign=bottom;endFill=0;rounded=0;fontSize=12;exitX=0.75;exitY=0;exitDx=0;exitDy=0;" parent="1" source="VDHOx4SLG22JS74lbpEi-16" edge="1">
          <mxGeometry x="0.4805" relative="1" as="geometry">
            <mxPoint x="-30.000000000000227" y="321" as="sourcePoint" />
            <mxPoint x="220" y="320" as="targetPoint" />
            <mxPoint as="offset" />
            <Array as="points">
              <mxPoint x="80" y="330" />
              <mxPoint x="80" y="320" />
            </Array>
          </mxGeometry>
        </mxCell>
        <mxCell id="0N0CLIWLFnsyUBgWIPJR-22" value="can be" style="endArrow=none;html=1;endSize=12;startArrow=none;startSize=14;startFill=0;edgeStyle=orthogonalEdgeStyle;align=center;verticalAlign=bottom;endFill=0;rounded=0;fontSize=12;exitX=0.75;exitY=0;exitDx=0;exitDy=0;entryX=0.051;entryY=1.012;entryDx=0;entryDy=0;entryPerimeter=0;" parent="1" target="VDHOx4SLG22JS74lbpEi-11" edge="1">
          <mxGeometry x="-0.0022" y="3" relative="1" as="geometry">
            <mxPoint x="140" y="440" as="sourcePoint" />
            <mxPoint x="226.99999999999977" y="430" as="targetPoint" />
            <mxPoint as="offset" />
            <Array as="points">
              <mxPoint x="140" y="430" />
              <mxPoint x="228" y="430" />
              <mxPoint x="228" y="411" />
            </Array>
          </mxGeometry>
        </mxCell>
        <mxCell id="0N0CLIWLFnsyUBgWIPJR-24" value="undertakes" style="endArrow=none;html=1;endSize=12;startArrow=none;startSize=14;startFill=0;edgeStyle=orthogonalEdgeStyle;align=center;verticalAlign=bottom;endFill=0;rounded=0;fontSize=12;entryX=0;entryY=0.5;entryDx=0;entryDy=0;exitX=0.011;exitY=0.128;exitDx=0;exitDy=0;exitPerimeter=0;" parent="1" source="VDHOx4SLG22JS74lbpEi-44" target="VDHOx4SLG22JS74lbpEi-17" edge="1">
          <mxGeometry x="-0.0022" y="3" relative="1" as="geometry">
            <mxPoint x="-30" y="740" as="sourcePoint" />
            <mxPoint x="109.99999999999977" y="540" as="targetPoint" />
            <mxPoint as="offset" />
            <Array as="points">
              <mxPoint x="-29" y="790" />
              <mxPoint x="-29" y="370" />
            </Array>
          </mxGeometry>
        </mxCell>
        <mxCell id="0N0CLIWLFnsyUBgWIPJR-25" value="undertakes" style="endArrow=none;html=1;endSize=12;startArrow=none;startSize=14;startFill=0;edgeStyle=orthogonalEdgeStyle;align=center;verticalAlign=bottom;endFill=0;rounded=0;fontSize=12;exitX=0;exitY=0;exitDx=0;exitDy=0;entryX=0.463;entryY=0.996;entryDx=0;entryDy=0;entryPerimeter=0;" parent="1" source="VDHOx4SLG22JS74lbpEi-41" edge="1">
          <mxGeometry x="0.2239" relative="1" as="geometry">
            <mxPoint x="0.0599999999997447" y="695.1399999999999" as="sourcePoint" />
            <mxPoint x="54.34999999999971" y="480.03999999999996" as="targetPoint" />
            <mxPoint as="offset" />
            <Array as="points">
              <mxPoint x="30" y="550" />
              <mxPoint x="71" y="550" />
              <mxPoint x="71" y="480" />
            </Array>
          </mxGeometry>
        </mxCell>
        <mxCell id="0N0CLIWLFnsyUBgWIPJR-26" value="" style="triangle;whiteSpace=wrap;html=1;fillColor=#000000;rotation=0;" parent="1" vertex="1">
          <mxGeometry x="351" y="881.5" width="13" height="16" as="geometry" />
        </mxCell>
        <mxCell id="0N0CLIWLFnsyUBgWIPJR-28" value="" style="triangle;whiteSpace=wrap;html=1;fillColor=#000000;rotation=90;" parent="1" vertex="1">
          <mxGeometry x="208.5" y="731" width="13" height="16" as="geometry" />
        </mxCell>
        <mxCell id="0N0CLIWLFnsyUBgWIPJR-31" value="" style="triangle;whiteSpace=wrap;html=1;fillColor=#000000;rotation=-180;" parent="1" vertex="1">
          <mxGeometry x="147" y="410" width="13" height="16" as="geometry" />
        </mxCell>
        <mxCell id="0N0CLIWLFnsyUBgWIPJR-32" value="" style="triangle;whiteSpace=wrap;html=1;fillColor=#000000;rotation=-180;" parent="1" vertex="1">
          <mxGeometry x="114" y="300" width="13" height="16" as="geometry" />
        </mxCell>
        <mxCell id="0N0CLIWLFnsyUBgWIPJR-33" value="" style="triangle;whiteSpace=wrap;html=1;fillColor=#000000;" parent="1" vertex="1">
          <mxGeometry x="464" y="351" width="13" height="16" as="geometry" />
        </mxCell>
        <mxCell id="0N0CLIWLFnsyUBgWIPJR-34" value="" style="triangle;whiteSpace=wrap;html=1;fillColor=#000000;" parent="1" vertex="1">
          <mxGeometry x="640" y="980" width="13" height="16" as="geometry" />
        </mxCell>
        <mxCell id="0N0CLIWLFnsyUBgWIPJR-36" value="" style="triangle;whiteSpace=wrap;html=1;fillColor=#000000;rotation=-90;" parent="1" vertex="1">
          <mxGeometry x="50" y="510" width="13" height="16" as="geometry" />
        </mxCell>
        <mxCell id="0N0CLIWLFnsyUBgWIPJR-37" value="" style="triangle;whiteSpace=wrap;html=1;fillColor=#000000;rotation=-90;" parent="1" vertex="1">
          <mxGeometry x="-50" y="534" width="13" height="16" as="geometry" />
        </mxCell>
        <mxCell id="0N0CLIWLFnsyUBgWIPJR-38" value="" style="triangle;whiteSpace=wrap;html=1;fillColor=#000000;rotation=-180;" parent="1" vertex="1">
          <mxGeometry x="388.5" y="420" width="13" height="16" as="geometry" />
        </mxCell>
        <mxCell id="0N0CLIWLFnsyUBgWIPJR-39" value="" style="triangle;whiteSpace=wrap;html=1;fillColor=#000000;rotation=-90;" parent="1" vertex="1">
          <mxGeometry x="394" y="577" width="13" height="16" as="geometry" />
        </mxCell>
        <mxCell id="0N0CLIWLFnsyUBgWIPJR-46" value="" style="triangle;whiteSpace=wrap;html=1;fillColor=#000000;rotation=90;" parent="1" vertex="1">
          <mxGeometry x="613" y="466" width="13" height="16" as="geometry" />
        </mxCell>
        <mxCell id="0N0CLIWLFnsyUBgWIPJR-47" value="" style="triangle;whiteSpace=wrap;html=1;fillColor=#000000;rotation=90;" parent="1" vertex="1">
          <mxGeometry x="451" y="819" width="13" height="16" as="geometry" />
        </mxCell>
        <mxCell id="0N0CLIWLFnsyUBgWIPJR-52" value="0..*" style="text;html=1;align=center;verticalAlign=middle;whiteSpace=wrap;rounded=0;" parent="1" vertex="1">
          <mxGeometry x="41.5" y="480" width="30" height="24" as="geometry" />
        </mxCell>
        <mxCell id="0N0CLIWLFnsyUBgWIPJR-53" value="0..*" style="text;html=1;align=center;verticalAlign=middle;whiteSpace=wrap;rounded=0;" parent="1" vertex="1">
          <mxGeometry y="343" width="30" height="24" as="geometry" />
        </mxCell>
        <mxCell id="0N0CLIWLFnsyUBgWIPJR-54" value="0..1" style="text;html=1;align=center;verticalAlign=middle;whiteSpace=wrap;rounded=0;" parent="1" vertex="1">
          <mxGeometry x="50" y="306" width="30" height="24" as="geometry" />
        </mxCell>
        <mxCell id="0N0CLIWLFnsyUBgWIPJR-55" value="&lt;span style=&quot;color: rgb(0, 0, 0); font-family: Helvetica; font-size: 12px; font-style: normal; font-variant-ligatures: normal; font-variant-caps: normal; font-weight: 400; letter-spacing: normal; orphans: 2; text-align: center; text-indent: 0px; text-transform: none; widows: 2; word-spacing: 0px; -webkit-text-stroke-width: 0px; white-space: normal; background-color: rgb(251, 251, 251); text-decoration-thickness: initial; text-decoration-style: initial; text-decoration-color: initial; display: inline !important; float: none;&quot;&gt;0..1&lt;/span&gt;" style="text;whiteSpace=wrap;html=1;" parent="1" vertex="1">
          <mxGeometry x="138.5" y="426" width="30" height="20" as="geometry" />
        </mxCell>
        <mxCell id="0N0CLIWLFnsyUBgWIPJR-56" value="&lt;span style=&quot;color: rgb(0, 0, 0); font-family: Helvetica; font-size: 12px; font-style: normal; font-variant-ligatures: normal; font-variant-caps: normal; font-weight: 400; letter-spacing: normal; orphans: 2; text-align: center; text-indent: 0px; text-transform: none; widows: 2; word-spacing: 0px; -webkit-text-stroke-width: 0px; white-space: normal; background-color: rgb(251, 251, 251); text-decoration-thickness: initial; text-decoration-style: initial; text-decoration-color: initial; display: inline !important; float: none;&quot;&gt;0..1&lt;/span&gt;" style="text;whiteSpace=wrap;html=1;" parent="1" vertex="1">
          <mxGeometry x="460" y="363" width="30" height="20" as="geometry" />
        </mxCell>
        <mxCell id="0N0CLIWLFnsyUBgWIPJR-57" value="&lt;span style=&quot;color: rgb(0, 0, 0); font-family: Helvetica; font-size: 12px; font-style: normal; font-variant-ligatures: normal; font-variant-caps: normal; font-weight: 400; letter-spacing: normal; orphans: 2; text-align: center; text-indent: 0px; text-transform: none; widows: 2; word-spacing: 0px; -webkit-text-stroke-width: 0px; white-space: normal; background-color: rgb(251, 251, 251); text-decoration-thickness: initial; text-decoration-style: initial; text-decoration-color: initial; display: inline !important; float: none;&quot;&gt;1..1&lt;/span&gt;" style="text;whiteSpace=wrap;html=1;" parent="1" vertex="1">
          <mxGeometry x="371.5" y="363" width="30" height="20" as="geometry" />
        </mxCell>
        <mxCell id="0N0CLIWLFnsyUBgWIPJR-58" value="&lt;span style=&quot;color: rgb(0, 0, 0); font-family: Helvetica; font-size: 12px; font-style: normal; font-variant-ligatures: normal; font-variant-caps: normal; font-weight: 400; letter-spacing: normal; orphans: 2; text-align: center; text-indent: 0px; text-transform: none; widows: 2; word-spacing: 0px; -webkit-text-stroke-width: 0px; white-space: normal; background-color: rgb(251, 251, 251); text-decoration-thickness: initial; text-decoration-style: initial; text-decoration-color: initial; display: inline !important; float: none;&quot;&gt;1..1&lt;/span&gt;" style="text;whiteSpace=wrap;html=1;" parent="1" vertex="1">
          <mxGeometry x="560" y="440" width="30" height="20" as="geometry" />
        </mxCell>
        <mxCell id="0N0CLIWLFnsyUBgWIPJR-59" value="&lt;div style=&quot;text-align: center;&quot;&gt;&lt;span style=&quot;background-color: initial;&quot;&gt;1..1&lt;/span&gt;&lt;/div&gt;" style="text;whiteSpace=wrap;html=1;" parent="1" vertex="1">
          <mxGeometry x="670" y="550" width="30" height="20" as="geometry" />
        </mxCell>
        <mxCell id="0N0CLIWLFnsyUBgWIPJR-60" value="&lt;span style=&quot;color: rgb(0, 0, 0); font-family: Helvetica; font-size: 12px; font-style: normal; font-variant-ligatures: normal; font-variant-caps: normal; font-weight: 400; letter-spacing: normal; orphans: 2; text-align: center; text-indent: 0px; text-transform: none; widows: 2; word-spacing: 0px; -webkit-text-stroke-width: 0px; white-space: normal; background-color: rgb(251, 251, 251); text-decoration-thickness: initial; text-decoration-style: initial; text-decoration-color: initial; display: inline !important; float: none;&quot;&gt;0..*&lt;/span&gt;" style="text;whiteSpace=wrap;html=1;" parent="1" vertex="1">
          <mxGeometry x="660" y="950" width="30" height="20" as="geometry" />
        </mxCell>
        <mxCell id="0N0CLIWLFnsyUBgWIPJR-61" value="&lt;div style=&quot;text-align: center;&quot;&gt;&lt;span style=&quot;background-color: initial;&quot;&gt;1..1&lt;/span&gt;&lt;/div&gt;" style="text;whiteSpace=wrap;html=1;" parent="1" vertex="1">
          <mxGeometry x="515" y="1010" width="30" height="20" as="geometry" />
        </mxCell>
        <mxCell id="0N0CLIWLFnsyUBgWIPJR-72" value="&lt;span style=&quot;color: rgb(0, 0, 0); font-family: Helvetica; font-size: 12px; font-style: normal; font-variant-ligatures: normal; font-variant-caps: normal; font-weight: 400; letter-spacing: normal; orphans: 2; text-align: center; text-indent: 0px; text-transform: none; widows: 2; word-spacing: 0px; -webkit-text-stroke-width: 0px; white-space: normal; background-color: rgb(251, 251, 251); text-decoration-thickness: initial; text-decoration-style: initial; text-decoration-color: initial; display: inline !important; float: none;&quot;&gt;1..1&lt;/span&gt;" style="text;whiteSpace=wrap;html=1;" parent="1" vertex="1">
          <mxGeometry x="413" y="600" width="30" height="20" as="geometry" />
        </mxCell>
        <mxCell id="0N0CLIWLFnsyUBgWIPJR-73" value="&lt;div style=&quot;text-align: center;&quot;&gt;&lt;span style=&quot;background-color: initial;&quot;&gt;0..*&lt;/span&gt;&lt;/div&gt;" style="text;whiteSpace=wrap;html=1;" parent="1" vertex="1">
          <mxGeometry x="413" y="558" width="30" height="20" as="geometry" />
        </mxCell>
        <mxCell id="0N0CLIWLFnsyUBgWIPJR-75" value="&lt;span style=&quot;color: rgb(0, 0, 0); font-family: Helvetica; font-size: 12px; font-style: normal; font-variant-ligatures: normal; font-variant-caps: normal; font-weight: 400; letter-spacing: normal; orphans: 2; text-align: center; text-indent: 0px; text-transform: none; widows: 2; word-spacing: 0px; -webkit-text-stroke-width: 0px; white-space: normal; background-color: rgb(251, 251, 251); text-decoration-thickness: initial; text-decoration-style: initial; text-decoration-color: initial; display: inline !important; float: none;&quot;&gt;1..1&lt;/span&gt;" style="text;whiteSpace=wrap;html=1;" parent="1" vertex="1">
          <mxGeometry x="417" y="436" width="30" height="20" as="geometry" />
        </mxCell>
        <mxCell id="0N0CLIWLFnsyUBgWIPJR-76" value="&lt;span style=&quot;color: rgb(0, 0, 0); font-family: Helvetica; font-size: 12px; font-style: normal; font-variant-ligatures: normal; font-variant-caps: normal; font-weight: 400; letter-spacing: normal; orphans: 2; text-align: center; text-indent: 0px; text-transform: none; widows: 2; word-spacing: 0px; -webkit-text-stroke-width: 0px; white-space: normal; background-color: rgb(251, 251, 251); text-decoration-thickness: initial; text-decoration-style: initial; text-decoration-color: initial; display: inline !important; float: none;&quot;&gt;1..1&lt;/span&gt;" style="text;whiteSpace=wrap;html=1;" parent="1" vertex="1">
          <mxGeometry x="330" y="406" width="30" height="20" as="geometry" />
        </mxCell>
        <mxCell id="0N0CLIWLFnsyUBgWIPJR-77" value="" style="triangle;whiteSpace=wrap;html=1;fillColor=#000000;rotation=90;" parent="1" vertex="1">
          <mxGeometry x="270" y="446" width="13" height="16" as="geometry" />
        </mxCell>
        <mxCell id="0N0CLIWLFnsyUBgWIPJR-79" value="&lt;span style=&quot;color: rgb(0, 0, 0); font-family: Helvetica; font-size: 12px; font-style: normal; font-variant-ligatures: normal; font-variant-caps: normal; font-weight: 400; letter-spacing: normal; orphans: 2; text-align: center; text-indent: 0px; text-transform: none; widows: 2; word-spacing: 0px; -webkit-text-stroke-width: 0px; white-space: normal; background-color: rgb(251, 251, 251); text-decoration-thickness: initial; text-decoration-style: initial; text-decoration-color: initial; display: inline !important; float: none;&quot;&gt;1..1&lt;/span&gt;" style="text;whiteSpace=wrap;html=1;" parent="1" vertex="1">
          <mxGeometry x="187" y="462" width="30" height="20" as="geometry" />
        </mxCell>
        <mxCell id="0N0CLIWLFnsyUBgWIPJR-80" value="&lt;span style=&quot;color: rgb(0, 0, 0); font-family: Helvetica; font-size: 12px; font-style: normal; font-variant-ligatures: normal; font-variant-caps: normal; font-weight: 400; letter-spacing: normal; orphans: 2; text-align: center; text-indent: 0px; text-transform: none; widows: 2; word-spacing: 0px; -webkit-text-stroke-width: 0px; white-space: normal; background-color: rgb(251, 251, 251); text-decoration-thickness: initial; text-decoration-style: initial; text-decoration-color: initial; display: inline !important; float: none;&quot;&gt;0..*&lt;/span&gt;" style="text;whiteSpace=wrap;html=1;" parent="1" vertex="1">
          <mxGeometry x="290" y="406" width="30" height="20" as="geometry" />
        </mxCell>
        <mxCell id="0N0CLIWLFnsyUBgWIPJR-81" value="&lt;span style=&quot;color: rgb(0, 0, 0); font-family: Helvetica; font-size: 12px; font-style: normal; font-variant-ligatures: normal; font-variant-caps: normal; font-weight: 400; letter-spacing: normal; orphans: 2; text-align: center; text-indent: 0px; text-transform: none; widows: 2; word-spacing: 0px; -webkit-text-stroke-width: 0px; white-space: normal; background-color: rgb(251, 251, 251); text-decoration-thickness: initial; text-decoration-style: initial; text-decoration-color: initial; display: inline !important; float: none;&quot;&gt;1..1&lt;/span&gt;" style="text;whiteSpace=wrap;html=1;" parent="1" vertex="1">
          <mxGeometry x="230" y="406" width="30" height="20" as="geometry" />
        </mxCell>
        <mxCell id="0N0CLIWLFnsyUBgWIPJR-82" value="&lt;span style=&quot;color: rgb(0, 0, 0); font-family: Helvetica; font-size: 12px; font-style: normal; font-variant-ligatures: normal; font-variant-caps: normal; font-weight: 400; letter-spacing: normal; orphans: 2; text-align: center; text-indent: 0px; text-transform: none; widows: 2; word-spacing: 0px; -webkit-text-stroke-width: 0px; white-space: normal; background-color: rgb(251, 251, 251); text-decoration-thickness: initial; text-decoration-style: initial; text-decoration-color: initial; display: inline !important; float: none;&quot;&gt;1..1&lt;/span&gt;" style="text;whiteSpace=wrap;html=1;" parent="1" vertex="1">
          <mxGeometry x="191.5" y="316" width="30" height="20" as="geometry" />
        </mxCell>
        <mxCell id="0N0CLIWLFnsyUBgWIPJR-87" value="&lt;span style=&quot;color: rgb(0, 0, 0); font-family: Helvetica; font-size: 12px; font-style: normal; font-variant-ligatures: normal; font-variant-caps: normal; font-weight: 400; letter-spacing: normal; orphans: 2; text-align: center; text-indent: 0px; text-transform: none; widows: 2; word-spacing: 0px; -webkit-text-stroke-width: 0px; white-space: normal; background-color: rgb(251, 251, 251); text-decoration-thickness: initial; text-decoration-style: initial; text-decoration-color: initial; display: inline !important; float: none;&quot;&gt;1..1&lt;/span&gt;" style="text;whiteSpace=wrap;html=1;" parent="1" vertex="1">
          <mxGeometry x="230" y="600" width="30" height="25" as="geometry" />
        </mxCell>
        <mxCell id="0N0CLIWLFnsyUBgWIPJR-91" value="&lt;span style=&quot;color: rgb(0, 0, 0); font-family: Helvetica; font-size: 12px; font-style: normal; font-variant-ligatures: normal; font-variant-caps: normal; font-weight: 400; letter-spacing: normal; orphans: 2; text-align: center; text-indent: 0px; text-transform: none; widows: 2; word-spacing: 0px; -webkit-text-stroke-width: 0px; white-space: normal; background-color: rgb(251, 251, 251); text-decoration-thickness: initial; text-decoration-style: initial; text-decoration-color: initial; display: inline !important; float: none;&quot;&gt;1..1&lt;/span&gt;" style="text;whiteSpace=wrap;html=1;" parent="1" vertex="1">
          <mxGeometry x="-21.5" y="794" width="30" height="25" as="geometry" />
        </mxCell>
        <mxCell id="0N0CLIWLFnsyUBgWIPJR-93" value="&lt;span style=&quot;color: rgb(0, 0, 0); font-family: Helvetica; font-size: 12px; font-style: normal; font-variant-ligatures: normal; font-variant-caps: normal; font-weight: 400; letter-spacing: normal; orphans: 2; text-align: center; text-indent: 0px; text-transform: none; widows: 2; word-spacing: 0px; -webkit-text-stroke-width: 0px; white-space: normal; background-color: rgb(251, 251, 251); text-decoration-thickness: initial; text-decoration-style: initial; text-decoration-color: initial; display: inline !important; float: none;&quot;&gt;1..1&lt;/span&gt;" style="text;whiteSpace=wrap;html=1;" parent="1" vertex="1">
          <mxGeometry x="30" y="597.5" width="30" height="25" as="geometry" />
        </mxCell>
        <mxCell id="0N0CLIWLFnsyUBgWIPJR-94" value="&lt;span style=&quot;color: rgb(0, 0, 0); font-family: Helvetica; font-size: 12px; font-style: normal; font-variant-ligatures: normal; font-variant-caps: normal; font-weight: 400; letter-spacing: normal; orphans: 2; text-align: center; text-indent: 0px; text-transform: none; widows: 2; word-spacing: 0px; -webkit-text-stroke-width: 0px; white-space: normal; background-color: rgb(251, 251, 251); text-decoration-thickness: initial; text-decoration-style: initial; text-decoration-color: initial; display: inline !important; float: none;&quot;&gt;1..1&lt;/span&gt;" style="text;whiteSpace=wrap;html=1;" parent="1" vertex="1">
          <mxGeometry x="430" y="765" width="30" height="25" as="geometry" />
        </mxCell>
        <mxCell id="0N0CLIWLFnsyUBgWIPJR-95" value="&lt;span style=&quot;color: rgb(0, 0, 0); font-family: Helvetica; font-size: 12px; font-style: normal; font-variant-ligatures: normal; font-variant-caps: normal; font-weight: 400; letter-spacing: normal; orphans: 2; text-align: center; text-indent: 0px; text-transform: none; widows: 2; word-spacing: 0px; -webkit-text-stroke-width: 0px; white-space: normal; background-color: rgb(251, 251, 251); text-decoration-thickness: initial; text-decoration-style: initial; text-decoration-color: initial; display: inline !important; float: none;&quot;&gt;0..*&lt;/span&gt;" style="text;whiteSpace=wrap;html=1;" parent="1" vertex="1">
          <mxGeometry x="447" y="895" width="30" height="25" as="geometry" />
        </mxCell>
        <mxCell id="0N0CLIWLFnsyUBgWIPJR-96" value="&lt;span style=&quot;color: rgb(0, 0, 0); font-family: Helvetica; font-size: 12px; font-style: normal; font-variant-ligatures: normal; font-variant-caps: normal; font-weight: 400; letter-spacing: normal; orphans: 2; text-align: center; text-indent: 0px; text-transform: none; widows: 2; word-spacing: 0px; -webkit-text-stroke-width: 0px; white-space: normal; background-color: rgb(251, 251, 251); text-decoration-thickness: initial; text-decoration-style: initial; text-decoration-color: initial; display: inline !important; float: none;&quot;&gt;0..*&lt;/span&gt;" style="text;whiteSpace=wrap;html=1;" parent="1" vertex="1">
          <mxGeometry x="364" y="895" width="30" height="25" as="geometry" />
        </mxCell>
        <mxCell id="0N0CLIWLFnsyUBgWIPJR-97" value="&lt;span style=&quot;color: rgb(0, 0, 0); font-family: Helvetica; font-size: 12px; font-style: normal; font-variant-ligatures: normal; font-variant-caps: normal; font-weight: 400; letter-spacing: normal; orphans: 2; text-align: center; text-indent: 0px; text-transform: none; widows: 2; word-spacing: 0px; -webkit-text-stroke-width: 0px; white-space: normal; background-color: rgb(251, 251, 251); text-decoration-thickness: initial; text-decoration-style: initial; text-decoration-color: initial; display: inline !important; float: none;&quot;&gt;1..1&lt;/span&gt;" style="text;whiteSpace=wrap;html=1;" parent="1" vertex="1">
          <mxGeometry x="274" y="895" width="30" height="25" as="geometry" />
        </mxCell>
        <mxCell id="AxYodoVxfF8I0XiZSgGo-4" value="employs" style="endArrow=none;html=1;endSize=12;startArrow=none;startSize=14;startFill=0;edgeStyle=orthogonalEdgeStyle;align=center;verticalAlign=bottom;endFill=0;rounded=0;fontSize=12;entryX=0.999;entryY=-0.024;entryDx=0;entryDy=0;entryPerimeter=0;" parent="1" target="VDHOx4SLG22JS74lbpEi-44" edge="1">
          <mxGeometry x="0.087" relative="1" as="geometry">
            <mxPoint x="230" y="599" as="sourcePoint" />
            <mxPoint x="227.56" y="790.58" as="targetPoint" />
            <mxPoint as="offset" />
            <Array as="points">
              <mxPoint x="230" y="599" />
              <mxPoint x="230" y="778" />
            </Array>
          </mxGeometry>
        </mxCell>
        <mxCell id="AxYodoVxfF8I0XiZSgGo-6" value="employs" style="endArrow=none;html=1;endSize=12;startArrow=none;startSize=14;startFill=0;edgeStyle=orthogonalEdgeStyle;align=center;verticalAlign=bottom;endFill=0;rounded=0;fontSize=12;exitX=0.44;exitY=0.987;exitDx=0;exitDy=0;exitPerimeter=0;entryX=0.663;entryY=0;entryDx=0;entryDy=0;entryPerimeter=0;" parent="1" target="VDHOx4SLG22JS74lbpEi-39" edge="1">
          <mxGeometry x="-0.2332" relative="1" as="geometry">
            <mxPoint x="259.95" y="600" as="sourcePoint" />
            <mxPoint x="227.95" y="779" as="targetPoint" />
            <mxPoint as="offset" />
            <Array as="points">
              <mxPoint x="290" y="600" />
              <mxPoint x="290" y="810" />
              <mxPoint x="220" y="810" />
            </Array>
          </mxGeometry>
        </mxCell>
        <mxCell id="AxYodoVxfF8I0XiZSgGo-7" value="" style="triangle;whiteSpace=wrap;html=1;fillColor=#000000;rotation=90;" parent="1" vertex="1">
          <mxGeometry x="274" y="715" width="13" height="16" as="geometry" />
        </mxCell>
        <mxCell id="AxYodoVxfF8I0XiZSgGo-11" value="employs" style="endArrow=none;html=1;endSize=12;startArrow=none;startSize=14;startFill=0;edgeStyle=orthogonalEdgeStyle;align=center;verticalAlign=bottom;endFill=0;rounded=0;fontSize=12;entryX=1.006;entryY=0.143;entryDx=0;entryDy=0;entryPerimeter=0;" parent="1" target="VDHOx4SLG22JS74lbpEi-42" edge="1">
          <mxGeometry x="-0.1399" relative="1" as="geometry">
            <mxPoint x="191.45" y="600" as="sourcePoint" />
            <mxPoint x="129.45" y="779" as="targetPoint" />
            <mxPoint as="offset" />
            <Array as="points">
              <mxPoint x="191" y="668" />
            </Array>
          </mxGeometry>
        </mxCell>
        <mxCell id="AxYodoVxfF8I0XiZSgGo-12" value="" style="triangle;whiteSpace=wrap;html=1;fillColor=#000000;rotation=90;" parent="1" vertex="1">
          <mxGeometry x="174" y="640" width="13" height="16" as="geometry" />
        </mxCell>
        <mxCell id="AxYodoVxfF8I0XiZSgGo-14" value="is for" style="endArrow=none;html=1;endSize=12;startArrow=none;startSize=14;startFill=0;edgeStyle=orthogonalEdgeStyle;align=center;verticalAlign=bottom;endFill=0;rounded=0;fontSize=12;exitX=0.861;exitY=0;exitDx=0;exitDy=0;exitPerimeter=0;entryX=-0.009;entryY=0.592;entryDx=0;entryDy=0;entryPerimeter=0;" parent="1" source="VDHOx4SLG22JS74lbpEi-22" target="VDHOx4SLG22JS74lbpEi-31" edge="1">
          <mxGeometry x="-0.6401" relative="1" as="geometry">
            <mxPoint x="417" y="737" as="sourcePoint" />
            <mxPoint x="590" y="680" as="targetPoint" />
            <mxPoint as="offset" />
            <Array as="points">
              <mxPoint x="510" y="920" />
              <mxPoint x="510" y="780" />
              <mxPoint x="590" y="780" />
              <mxPoint x="590" y="708" />
            </Array>
          </mxGeometry>
        </mxCell>
        <mxCell id="AxYodoVxfF8I0XiZSgGo-15" value="" style="triangle;whiteSpace=wrap;html=1;fillColor=#000000;rotation=-90;" parent="1" vertex="1">
          <mxGeometry x="515" y="845" width="13" height="16" as="geometry" />
        </mxCell>
        <mxCell id="AxYodoVxfF8I0XiZSgGo-16" value="&lt;div style=&quot;text-align: center;&quot;&gt;&lt;span style=&quot;background-color: initial;&quot;&gt;1..1&lt;/span&gt;&lt;/div&gt;" style="text;whiteSpace=wrap;html=1;" parent="1" vertex="1">
          <mxGeometry x="515" y="897.5" width="30" height="20" as="geometry" />
        </mxCell>
        <mxCell id="AxYodoVxfF8I0XiZSgGo-17" value="&lt;div style=&quot;text-align: center;&quot;&gt;0..*&lt;/div&gt;" style="text;whiteSpace=wrap;html=1;" parent="1" vertex="1">
          <mxGeometry x="590" y="711" width="30" height="20" as="geometry" />
        </mxCell>
        <mxCell id="AxYodoVxfF8I0XiZSgGo-18" value="&lt;span style=&quot;color: rgb(0, 0, 0); font-family: Helvetica; font-size: 12px; font-style: normal; font-variant-ligatures: normal; font-variant-caps: normal; font-weight: 400; letter-spacing: normal; orphans: 2; text-align: center; text-indent: 0px; text-transform: none; widows: 2; word-spacing: 0px; -webkit-text-stroke-width: 0px; white-space: normal; background-color: rgb(251, 251, 251); text-decoration-thickness: initial; text-decoration-style: initial; text-decoration-color: initial; display: inline !important; float: none;&quot;&gt;1..1&lt;/span&gt;" style="text;whiteSpace=wrap;html=1;" parent="1" vertex="1">
          <mxGeometry x="165.5" y="597.5" width="30" height="20" as="geometry" />
        </mxCell>
        <mxCell id="AxYodoVxfF8I0XiZSgGo-19" value="&lt;span style=&quot;color: rgb(0, 0, 0); font-family: Helvetica; font-size: 12px; font-style: normal; font-variant-ligatures: normal; font-variant-caps: normal; font-weight: 400; letter-spacing: normal; orphans: 2; text-align: center; text-indent: 0px; text-transform: none; widows: 2; word-spacing: 0px; -webkit-text-stroke-width: 0px; white-space: normal; background-color: rgb(251, 251, 251); text-decoration-thickness: initial; text-decoration-style: initial; text-decoration-color: initial; display: inline !important; float: none;&quot;&gt;1..1&lt;/span&gt;" style="text;whiteSpace=wrap;html=1;" parent="1" vertex="1">
          <mxGeometry x="261.5" y="600" width="30" height="20" as="geometry" />
        </mxCell>
        <mxCell id="AxYodoVxfF8I0XiZSgGo-20" value="is for" style="endArrow=none;html=1;endSize=12;startArrow=none;startSize=14;startFill=0;edgeStyle=orthogonalEdgeStyle;align=center;verticalAlign=bottom;endFill=0;rounded=0;fontSize=12;exitX=1.004;exitY=0.62;exitDx=0;exitDy=0;exitPerimeter=0;entryX=1;entryY=0.5;entryDx=0;entryDy=0;" parent="1" source="VDHOx4SLG22JS74lbpEi-21" target="VDHOx4SLG22JS74lbpEi-33" edge="1">
          <mxGeometry x="-0.8017" y="-1" relative="1" as="geometry">
            <mxPoint x="720" y="364.92" as="sourcePoint" />
            <mxPoint x="798" y="503.92" as="targetPoint" />
            <mxPoint x="-1" as="offset" />
            <Array as="points">
              <mxPoint x="676" y="410" />
              <mxPoint x="820" y="410" />
              <mxPoint x="820" y="895" />
            </Array>
          </mxGeometry>
        </mxCell>
        <mxCell id="AxYodoVxfF8I0XiZSgGo-23" value="" style="triangle;whiteSpace=wrap;html=1;fillColor=#000000;" parent="1" vertex="1">
          <mxGeometry x="760" y="394" width="13" height="16" as="geometry" />
        </mxCell>
        <mxCell id="AxYodoVxfF8I0XiZSgGo-24" value="&lt;span style=&quot;color: rgb(0, 0, 0); font-family: Helvetica; font-size: 12px; font-style: normal; font-variant-ligatures: normal; font-variant-caps: normal; font-weight: 400; letter-spacing: normal; orphans: 2; text-align: center; text-indent: 0px; text-transform: none; widows: 2; word-spacing: 0px; -webkit-text-stroke-width: 0px; white-space: normal; background-color: rgb(251, 251, 251); text-decoration-thickness: initial; text-decoration-style: initial; text-decoration-color: initial; display: inline !important; float: none;&quot;&gt;1..1&lt;/span&gt;" style="text;whiteSpace=wrap;html=1;" parent="1" vertex="1">
          <mxGeometry x="670" y="416" width="30" height="20" as="geometry" />
        </mxCell>
        <mxCell id="AxYodoVxfF8I0XiZSgGo-25" value="&lt;div style=&quot;text-align: center;&quot;&gt;&lt;span style=&quot;background-color: initial;&quot;&gt;1..1&lt;/span&gt;&lt;/div&gt;" style="text;whiteSpace=wrap;html=1;" parent="1" vertex="1">
          <mxGeometry x="760" y="875" width="30" height="20" as="geometry" />
        </mxCell>
        <mxCell id="kTd8F2cXccz41wzPrc-y-2" value="&lt;span style=&quot;color: rgb(0, 0, 0); font-family: Helvetica; font-size: 12px; font-style: normal; font-variant-ligatures: normal; font-variant-caps: normal; font-weight: 400; letter-spacing: normal; orphans: 2; text-align: center; text-indent: 0px; text-transform: none; widows: 2; word-spacing: 0px; -webkit-text-stroke-width: 0px; white-space: normal; background-color: rgb(251, 251, 251); text-decoration-thickness: initial; text-decoration-style: initial; text-decoration-color: initial; display: inline !important; float: none;&quot;&gt;0..*&lt;/span&gt;&lt;span style=&quot;color: rgba(0, 0, 0, 0); font-family: monospace; font-size: 0px; text-wrap: nowrap;&quot;&gt;%3CmxGraphModel%3E%3Croot%3E%3CmxCell%20id%3D%220%22%2F%3E%3CmxCell%20id%3D%221%22%20parent%3D%220%22%2F%3E%3CmxCell%20id%3D%222%22%20value%3D%22%26lt%3Bspan%20style%3D%26quot%3Bcolor%3A%20rgb(0%2C%200%2C%200)%3B%20font-family%3A%20Helvetica%3B%20font-size%3A%2012px%3B%20font-style%3A%20normal%3B%20font-variant-ligatures%3A%20normal%3B%20font-variant-caps%3A%20normal%3B%20font-weight%3A%20400%3B%20letter-spacing%3A%20normal%3B%20orphans%3A%202%3B%20text-align%3A%20center%3B%20text-indent%3A%200px%3B%20text-transform%3A%20none%3B%20widows%3A%202%3B%20word-spacing%3A%200px%3B%20-webkit-text-stroke-width%3A%200px%3B%20white-space%3A%20normal%3B%20background-color%3A%20rgb(251%2C%20251%2C%20251)%3B%20text-decoration-thickness%3A%20initial%3B%20text-decoration-style%3A%20initial%3B%20text-decoration-color%3A%20initial%3B%20display%3A%20inline%20!important%3B%20float%3A%20none%3B%26quot%3B%26gt%3B1..1%26lt%3B%2Fspan%26gt%3B%22%20style%3D%22text%3BwhiteSpace%3Dwrap%3Bhtml%3D1%3B%22%20vertex%3D%221%22%20parent%3D%221%22%3E%3CmxGeometry%20x%3D%22230%22%20y%3D%22600%22%20width%3D%2230%22%20height%3D%2225%22%20as%3D%22geometry%22%2F%3E%3C%2FmxCell%3E%3C%2Froot%3E%3C%2FmxGraphModel%3E&lt;/span&gt;" style="text;whiteSpace=wrap;html=1;" vertex="1" parent="1">
          <mxGeometry x="221.5" y="845" width="30" height="25" as="geometry" />
        </mxCell>
        <mxCell id="kTd8F2cXccz41wzPrc-y-3" value="&lt;span style=&quot;color: rgb(0, 0, 0); font-family: Helvetica; font-size: 12px; font-style: normal; font-variant-ligatures: normal; font-variant-caps: normal; font-weight: 400; letter-spacing: normal; orphans: 2; text-align: center; text-indent: 0px; text-transform: none; widows: 2; word-spacing: 0px; -webkit-text-stroke-width: 0px; white-space: normal; background-color: rgb(251, 251, 251); text-decoration-thickness: initial; text-decoration-style: initial; text-decoration-color: initial; display: inline !important; float: none;&quot;&gt;0..*&lt;/span&gt;&lt;span style=&quot;color: rgba(0, 0, 0, 0); font-family: monospace; font-size: 0px; text-wrap: nowrap;&quot;&gt;%3CmxGraphModel%3E%3Croot%3E%3CmxCell%20id%3D%220%22%2F%3E%3CmxCell%20id%3D%221%22%20parent%3D%220%22%2F%3E%3CmxCell%20id%3D%222%22%20value%3D%22%26lt%3Bspan%20style%3D%26quot%3Bcolor%3A%20rgb(0%2C%200%2C%200)%3B%20font-family%3A%20Helvetica%3B%20font-size%3A%2012px%3B%20font-style%3A%20normal%3B%20font-variant-ligatures%3A%20normal%3B%20font-variant-caps%3A%20normal%3B%20font-weight%3A%20400%3B%20letter-spacing%3A%20normal%3B%20orphans%3A%202%3B%20text-align%3A%20center%3B%20text-indent%3A%200px%3B%20text-transform%3A%20none%3B%20widows%3A%202%3B%20word-spacing%3A%200px%3B%20-webkit-text-stroke-width%3A%200px%3B%20white-space%3A%20normal%3B%20background-color%3A%20rgb(251%2C%20251%2C%20251)%3B%20text-decoration-thickness%3A%20initial%3B%20text-decoration-style%3A%20initial%3B%20text-decoration-color%3A%20initial%3B%20display%3A%20inline%20!important%3B%20float%3A%20none%3B%26quot%3B%26gt%3B1..1%26lt%3B%2Fspan%26gt%3B%22%20style%3D%22text%3BwhiteSpace%3Dwrap%3Bhtml%3D1%3B%22%20vertex%3D%221%22%20parent%3D%221%22%3E%3CmxGeometry%20x%3D%22230%22%20y%3D%22600%22%20width%3D%2230%22%20height%3D%2225%22%20as%3D%22geometry%22%2F%3E%3C%2FmxCell%3E%3C%2Froot%3E%3C%2FmxGraphModel%3E&lt;/span&gt;" style="text;whiteSpace=wrap;html=1;" vertex="1" parent="1">
          <mxGeometry x="170" y="777" width="30" height="25" as="geometry" />
        </mxCell>
        <mxCell id="kTd8F2cXccz41wzPrc-y-4" value="&lt;span style=&quot;color: rgb(0, 0, 0); font-family: Helvetica; font-size: 12px; font-style: normal; font-variant-ligatures: normal; font-variant-caps: normal; font-weight: 400; letter-spacing: normal; orphans: 2; text-align: center; text-indent: 0px; text-transform: none; widows: 2; word-spacing: 0px; -webkit-text-stroke-width: 0px; white-space: normal; background-color: rgb(251, 251, 251); text-decoration-thickness: initial; text-decoration-style: initial; text-decoration-color: initial; display: inline !important; float: none;&quot;&gt;0..*&lt;/span&gt;&lt;span style=&quot;color: rgba(0, 0, 0, 0); font-family: monospace; font-size: 0px; text-wrap: nowrap;&quot;&gt;%3CmxGraphModel%3E%3Croot%3E%3CmxCell%20id%3D%220%22%2F%3E%3CmxCell%20id%3D%221%22%20parent%3D%220%22%2F%3E%3CmxCell%20id%3D%222%22%20value%3D%22%26lt%3Bspan%20style%3D%26quot%3Bcolor%3A%20rgb(0%2C%200%2C%200)%3B%20font-family%3A%20Helvetica%3B%20font-size%3A%2012px%3B%20font-style%3A%20normal%3B%20font-variant-ligatures%3A%20normal%3B%20font-variant-caps%3A%20normal%3B%20font-weight%3A%20400%3B%20letter-spacing%3A%20normal%3B%20orphans%3A%202%3B%20text-align%3A%20center%3B%20text-indent%3A%200px%3B%20text-transform%3A%20none%3B%20widows%3A%202%3B%20word-spacing%3A%200px%3B%20-webkit-text-stroke-width%3A%200px%3B%20white-space%3A%20normal%3B%20background-color%3A%20rgb(251%2C%20251%2C%20251)%3B%20text-decoration-thickness%3A%20initial%3B%20text-decoration-style%3A%20initial%3B%20text-decoration-color%3A%20initial%3B%20display%3A%20inline%20!important%3B%20float%3A%20none%3B%26quot%3B%26gt%3B1..1%26lt%3B%2Fspan%26gt%3B%22%20style%3D%22text%3BwhiteSpace%3Dwrap%3Bhtml%3D1%3B%22%20vertex%3D%221%22%20parent%3D%221%22%3E%3CmxGeometry%20x%3D%22230%22%20y%3D%22600%22%20width%3D%2230%22%20height%3D%2225%22%20as%3D%22geometry%22%2F%3E%3C%2FmxCell%3E%3C%2Froot%3E%3C%2FmxGraphModel%3E&lt;/span&gt;" style="text;whiteSpace=wrap;html=1;" vertex="1" parent="1">
          <mxGeometry x="170" y="668.5" width="30" height="25" as="geometry" />
        </mxCell>
      </root>
    </mxGraphModel>
  </diagram>
</mxfile>
